<svg width="49" height="49" viewBox="0 0 49 49" fill="none" xmlns="http://www.w3.org/2000/svg">
<path d="M24.5 3.0625C12.6615 3.0625 3.0625 12.6615 3.0625 24.5C3.0625 36.3385 12.6615 45.9375 24.5 45.9375C36.3385 45.9375 45.9375 36.3385 45.9375 24.5C45.9375 12.6615 36.3385 3.0625 24.5 3.0625ZM34.8024 19.222C34.8168 19.4469 34.8168 19.6813 34.8168 19.911C34.8168 26.9356 29.467 35.0273 19.6909 35.0273C16.6763 35.0273 13.8817 34.1517 11.5274 32.6443C11.9581 32.6922 12.3696 32.7113 12.8099 32.7113C15.2981 32.7113 17.5854 31.8691 19.4086 30.4432C17.0734 30.3953 15.1115 28.8641 14.4416 26.7586C15.2599 26.8782 15.9968 26.8782 16.839 26.6629C15.6366 26.4186 14.5558 25.7656 13.7804 24.8148C13.0049 23.864 12.5825 22.674 12.585 21.4471V21.3801C13.2884 21.7772 14.1162 22.0213 14.9823 22.0548C14.2542 21.5695 13.6571 20.9121 13.2439 20.1409C12.8307 19.3696 12.6143 18.5083 12.6137 17.6333C12.6137 16.6428 12.8721 15.7384 13.3362 14.9536C14.6708 16.5965 16.3362 17.9402 18.2241 18.8974C20.112 19.8545 22.1802 20.4037 24.2942 20.5092C23.543 16.8964 26.2418 13.9727 29.4861 13.9727C31.0174 13.9727 32.3955 14.6139 33.3669 15.6475C34.568 15.4226 35.7164 14.9728 36.7404 14.3698C36.3433 15.5996 35.5106 16.638 34.4053 17.2936C35.4771 17.1787 36.5107 16.882 37.4678 16.4657C36.7452 17.528 35.8408 18.4707 34.8024 19.222Z" fill="#0587FF"/>
</svg>
